<?xml version="1.0" encoding="UTF-8"?>
<svg width="140px" height="122px" viewBox="0 0 140 122" version="1.1" xmlns="http://www.w3.org/2000/svg" xmlns:xlink="http://www.w3.org/1999/xlink">
    <!-- Generator: Sketch 63.1 (92452) - https://sketch.com -->
    <title>Group 63</title>
    <desc>Created with Sketch.</desc>
    <g id="Page-1" stroke="none" stroke-width="1" fill="none" fill-rule="evenodd">
        <g id="Group-63" fill-rule="nonzero">
            <g id="industry-solid" fill="#1B2B4B">
                <path d="M129.131292,35.7221719 L91.3212891,59.7196558 L91.3212891,41.2108427 C91.3212891,36.0832401 85.632462,32.9705175 81.2963315,35.7221719 L43.4863281,59.7196558 L43.4863281,6.50573394 C43.4863281,2.9126713 40.5659494,0 36.9633789,0 L6.52294922,0 C2.92037872,0 0,2.9126713 0,6.50573394 L0,114.934633 C0,118.527696 2.92037872,121.440367 6.52294922,121.440367 L132.633301,121.440367 C136.235871,121.440367 139.15625,118.527696 139.15625,114.934633 L139.15625,41.2108427 C139.15625,36.082969 133.467423,32.9705175 129.131292,35.7221719 Z" id="Path"></path>
            </g>
            <path d="M17.5060733,35.2612696 C20.5115593,35.2484691 23.39904,34.1368472 25.5809083,32.1526207 C28.7274756,29.1320888 32.0004473,16.5515948 32.3631076,15.1316125 C32.4880838,14.6412534 32.3373264,14.1238386 31.9654688,13.7668757 C31.5936113,13.4099129 31.0546068,13.265194 30.5437868,13.3851643 C29.064554,13.7332984 15.9576191,16.8766162 12.8125567,19.8957036 C11.0606476,21.6675957 9.95219452,23.9355511 9.65244606,26.3614621 C9.21092186,28.8233247 9.98984369,31.3420805 11.7591865,33.1739101 C13.3075193,34.5785646 15.3769129,35.3302009 17.5060733,35.2612696 L17.5060733,35.2612696 Z M13.0226942,26.4266317 C13.2333657,24.660701 14.0310163,23.007431 15.2969295,21.712882 C16.9298661,20.1416321 23.7689013,17.9890198 28.975,16.6320313 C27.5647366,21.6414616 25.32316,28.2249986 23.6946769,29.7933917 C21.5262679,31.7962007 18.3879454,32.4874529 15.5299941,31.5917586 L18.9710368,28.2807065 L22.4328623,28.767794 C22.5045485,28.7786492 22.5770302,28.7839038 22.6495975,28.7835065 C23.4256526,28.7806199 24.068433,28.203047 24.1244717,27.4582525 C24.1805104,26.7134579 23.6308937,26.0528187 22.8633638,25.942401 L21.5881888,25.7624215 L24.7471788,22.7227672 C25.1330812,22.3641301 25.2878479,21.8330428 25.1519944,21.333629 C25.0161408,20.8342152 24.6108089,20.4441953 24.0917883,20.3134738 C23.5727677,20.1827523 23.02083,20.3316725 22.648113,20.7029969 L19.486154,23.7397944 L19.2991086,22.5127911 C19.2377896,21.995052 18.8883311,21.5505235 18.3872539,21.352867 C17.8861767,21.1552104 17.312998,21.2357923 16.8916379,21.5631322 C16.4702779,21.8904722 16.2676033,22.4126238 16.3627917,22.9256013 L16.8704866,26.256651 L13.4338973,29.5634178 C13.0108917,28.571227 12.8689982,27.4888187 13.0226942,26.4266317 Z" id="Shape" fill="#FFFFFF" transform="translate(20.968750, 24.304688) rotate(-47.000000) translate(-20.968750, -24.304688) "></path>
        </g>
    </g>
</svg>