<?xml version="1.0" encoding="UTF-8"?>
<svg width="130px" height="130px" viewBox="0 0 130 130" version="1.1" xmlns="http://www.w3.org/2000/svg" xmlns:xlink="http://www.w3.org/1999/xlink">
    <!-- Generator: Sketch 63.1 (92452) - https://sketch.com -->
    <title>gas-pump-solid</title>
    <desc>Created with Sketch.</desc>
    <g id="Page-1" stroke="none" stroke-width="1" fill="none" fill-rule="evenodd">
        <g id="gas-pump-solid" fill="#1B2B4B" fill-rule="nonzero">
            <path d="M85.3125,113.75 L4.0625,113.75 C1.828125,113.75 0,115.578125 0,117.8125 L0,125.9375 C0,128.171875 1.828125,130 4.0625,130 L85.3125,130 C87.546875,130 89.375,128.171875 89.375,125.9375 L89.375,117.8125 C89.375,115.578125 87.546875,113.75 85.3125,113.75 Z M125.226562,27.2441406 L104.660156,6.67773438 C103.085938,5.10351563 100.496094,5.10351563 98.921875,6.67773438 L96.0527344,9.546875 C94.4785156,11.1210938 94.4785156,13.7109375 96.0527344,15.2851563 L105.625,24.8574219 L105.625,40.625 C105.625,47.7597656 110.931641,53.6503906 117.8125,54.640625 L117.8125,95.46875 C117.8125,98.8203125 115.070312,101.5625 111.71875,101.5625 C108.367188,101.5625 105.625,98.8203125 105.625,95.46875 L105.625,87.34375 C105.625,75.0039062 95.6210938,65 83.28125,65 L81.25,65 L81.25,16.25 C81.25,7.28710938 73.9628906,0 65,0 L24.375,0 C15.4121094,0 8.125,7.28710938 8.125,16.25 L8.125,105.625 L81.25,105.625 L81.25,77.1875 L83.28125,77.1875 C88.8925781,77.1875 93.4375,81.7324219 93.4375,87.34375 L93.4375,94.4023438 C93.4375,103.974609 100.292969,112.683594 109.814453,113.673828 C120.732422,114.765625 130,106.183594 130,95.46875 L130,38.7460938 C130,34.4296875 128.273438,30.2910156 125.226562,27.2441406 Z M65,48.75 L24.375,48.75 L24.375,16.25 L65,16.25 L65,48.75 Z" id="Shape"></path>
        </g>
    </g>
</svg>