<?xml version="1.0" encoding="UTF-8"?>
<svg width="150px" height="106px" viewBox="0 0 150 106" version="1.1" xmlns="http://www.w3.org/2000/svg" xmlns:xlink="http://www.w3.org/1999/xlink">
    <!-- Generator: Sketch 63.1 (92452) - https://sketch.com -->
    <title>road-solid</title>
    <desc>Created with Sketch.</desc>
    <g id="Page-1" stroke="none" stroke-width="1" fill="none" fill-rule="evenodd">
        <g id="road-solid" fill="#1B2B4B" fill-rule="nonzero">
            <path d="M149.268229,93.4870313 L112.864583,5.15369792 C111.570312,2.01234375 108.75,0 105.645833,0 L80.2317708,0 L80.8697917,6.393125 C81,7.69604167 80.0338542,8.83333333 78.796875,8.83333333 L71.203125,8.83333333 C69.9661458,8.83333333 69,7.69604167 69.1302083,6.393125 L69.7682292,0 L44.3541667,0 C41.2473958,0 38.4270833,2.01234375 37.1328125,5.15369792 L0.729166667,93.4870313 C-1.6796875,99.3363542 2.1640625,106 7.953125,106 L59.2135417,106 L61.8984375,79.03625 C62.1223958,76.7892708 63.9088542,75.0833333 66.0416667,75.0833333 L83.9583333,75.0833333 C86.0911458,75.0833333 87.8776042,76.7892708 88.1015625,79.03625 L90.7864583,106 L142.046875,106 C147.835937,106 151.679687,99.3363542 149.268229,93.4870313 Z M67.8125,19.643125 C67.9244647,18.5190614 68.819085,17.6660701 69.8854167,17.6666664 L80.1171875,17.6666664 C81.1822917,17.6666664 82.078125,18.5196354 82.1901042,19.643125 L83.3880208,31.6730208 C83.5833333,33.6301562 82.1354167,35.3333333 80.28125,35.3333333 L69.7239583,35.3333333 C67.8671875,35.3333333 66.421875,33.6301562 66.6171875,31.6730208 L67.8125,19.643125 L67.8125,19.643125 Z M82.1979167,66.25 L67.7994792,66.25 C65.3255208,66.25 63.3958333,63.9781771 63.65625,61.3695833 L64.9765625,48.1195833 C65.2005208,45.8726042 66.9869792,44.1666667 69.1197917,44.1666667 L80.8776042,44.1666667 C83.0104167,44.1666667 84.796875,45.8726042 85.0208333,48.1195833 L86.3411458,61.3695833 C86.6015625,63.9781771 84.671875,66.25 82.1979167,66.25 L82.1979167,66.25 Z" id="Shape"></path>
        </g>
    </g>
</svg>