<?xml version="1.0" encoding="UTF-8"?>
<svg width="153px" height="143px" viewBox="0 0 153 143" version="1.1" xmlns="http://www.w3.org/2000/svg" xmlns:xlink="http://www.w3.org/1999/xlink">
    <!-- Generator: Sketch 63.1 (92452) - https://sketch.com -->
    <title>Group 66</title>
    <desc>Created with Sketch.</desc>
    <g id="Page-1" stroke="none" stroke-width="1" fill="none" fill-rule="evenodd">
        <g id="Group-66" transform="translate(1.000000, 1.000000)" fill="#1B2B4B" fill-rule="nonzero" stroke="#FFFFFF" stroke-width="2">
            <g id="tree-solid" transform="translate(45.000000, 0.000000)">
                <path d="M104.473317,104.2311 L82.4198368,79.3118546 L90.8751891,79.3118546 C93.3623822,79.3118546 95.5624853,77.9349485 96.611468,75.7153759 C97.6604506,73.501311 97.3153905,70.9622962 95.7060303,69.0924578 L74.1383948,44.0630594 L82.1134235,44.0630594 C84.6254609,44.0630594 86.8890551,42.5897699 87.8717862,40.3151211 C88.8434754,38.0762718 88.3852356,35.4711655 86.7013424,33.6839415 L56.261522,1.33215662 C54.5969522,-0.444052205 51.4914114,-0.444052205 49.8240811,1.33215662 L19.3815003,33.6839415 C17.6976071,35.4711655 17.2421277,38.0762718 18.2110565,40.3151211 C19.1937876,42.5897699 21.4601422,44.0630594 23.9721796,44.0630594 L31.9472083,44.0630594 L10.3768123,69.0979654 C8.77297305,70.96505 8.42791296,73.501311 9.47413514,75.7181298 C10.5231178,77.9349485 12.7204604,79.3118546 15.210414,79.3118546 L23.6657663,79.3118546 L1.61228619,104.2311 C-0.0440022137,106.100939 -0.419427585,108.661984 0.62955507,110.911849 C1.66473532,113.128667 3.94213187,114.56065 6.42932496,114.56065 L44.2092634,114.56065 L44.2092634,121.29372 L35.8477675,134.622171 C34.3791917,137.552227 36.5158038,141 39.7980153,141 L66.2875878,141 C69.5697993,141 71.7064114,137.552227 70.2378357,134.622171 L61.8763397,121.29372 L61.8763397,114.56065 L99.6562782,114.56065 C102.143471,114.56065 104.420868,113.128667 105.456048,110.911849 C106.505031,108.661984 106.129605,106.100939 104.473317,104.2311 Z" id="Path"></path>
            </g>
            <g id="tree-solid">
                <path d="M104.473317,104.2311 L82.4198368,79.3118546 L90.8751891,79.3118546 C93.3623822,79.3118546 95.5624853,77.9349485 96.611468,75.7153759 C97.6604506,73.501311 97.3153905,70.9622962 95.7060303,69.0924578 L74.1383948,44.0630594 L82.1134235,44.0630594 C84.6254609,44.0630594 86.8890551,42.5897699 87.8717862,40.3151211 C88.8434754,38.0762718 88.3852356,35.4711655 86.7013424,33.6839415 L56.261522,1.33215662 C54.5969522,-0.444052205 51.4914114,-0.444052205 49.8240811,1.33215662 L19.3815003,33.6839415 C17.6976071,35.4711655 17.2421277,38.0762718 18.2110565,40.3151211 C19.1937876,42.5897699 21.4601422,44.0630594 23.9721796,44.0630594 L31.9472083,44.0630594 L10.3768123,69.0979654 C8.77297305,70.96505 8.42791296,73.501311 9.47413514,75.7181298 C10.5231178,77.9349485 12.7204604,79.3118546 15.210414,79.3118546 L23.6657663,79.3118546 L1.61228619,104.2311 C-0.0440022137,106.100939 -0.419427585,108.661984 0.62955507,110.911849 C1.66473532,113.128667 3.94213187,114.56065 6.42932496,114.56065 L44.2092634,114.56065 L44.2092634,121.29372 L35.8477675,134.622171 C34.3791917,137.552227 36.5158038,141 39.7980153,141 L66.2875878,141 C69.5697993,141 71.7064114,137.552227 70.2378357,134.622171 L61.8763397,121.29372 L61.8763397,114.56065 L99.6562782,114.56065 C102.143471,114.56065 104.420868,113.128667 105.456048,110.911849 C106.505031,108.661984 106.129605,106.100939 104.473317,104.2311 Z" id="Path"></path>
            </g>
        </g>
    </g>
</svg>