<?xml version="1.0" encoding="UTF-8"?>
<svg width="48px" height="53px" viewBox="0 0 48 53" version="1.1" xmlns="http://www.w3.org/2000/svg" xmlns:xlink="http://www.w3.org/1999/xlink">
    <!-- Generator: Sketch 63.1 (92452) - https://sketch.com -->
    <title>Group 4</title>
    <desc>Created with Sketch.</desc>
    <g id="Page-1" stroke="none" stroke-width="1" fill="none" fill-rule="evenodd">
        <g id="Admin-View" transform="translate(-1225.000000, -1948.000000)" fill="#191B2F" fill-rule="nonzero">
            <g id="Group-4" transform="translate(1225.000000, 1948.000000)">
                <path d="M48,2.74793181 C47.9982155,1.76278781 47.466923,0.854268046 46.6081265,0.367803122 C45.7448469,-0.110069522 44.6926376,-0.0971382304 43.8414227,0.401804961 L31.7406447,7.62719562 L19.6739533,0.396137988 C18.8011281,-0.132045996 17.7062203,-0.132045996 16.8333951,0.396137988 L3.33506237,8.47724158 C2.51025164,8.97345256 2.00430065,9.86256847 2,10.8233684 L2,23.0186945 C3.65334263,21.80672 5.51248779,20.9024991 7.4879585,20.3495502 L7.4879585,12.3704521 L15.7483018,7.42885156 L15.7483018,20.0775354 C17.510545,20.4559943 19.2016877,21.110111 20.7590466,22.0156402 L20.7590466,7.44585248 L29.2295912,12.5121264 L29.2295912,35.0383443 C29.3485237,36.197045 29.3485237,37.3648321 29.2295912,38.5235328 L33.4563419,40.2236247 C33.9957605,40.4311214 34.5133527,40.6911714 35.0016055,41 L46.6649376,34.0012883 C47.4897484,33.5050773 47.9956993,32.6159614 48,31.6551614 L48,2.74793181 Z M42.534766,30.1024108 L34.2687415,35.0383443 L34.2687415,12.5177934 L42.534766,7.56485892 L42.534766,30.1024108 Z" id="Shape"></path>
                <path d="M12.6744087,25.0000068 C6.92310443,24.9941332 1.89041886,28.8034755 0.421215442,34.2747055 C-1.04798798,39.7459354 1.4154994,45.504141 6.41912383,48.2943387 C11.4227483,51.0845365 17.7091063,50.2055538 21.7246619,46.1542597 L27.8665162,51.8776897 C28.6529483,52.602744 29.6915058,53.0042714 30.7692124,52.9999657 C30.9427305,52.9991045 31.1160357,52.9878612 31.288162,52.9662637 C31.421226,52.9662637 31.55429,52.9438188 31.687354,52.8989292 C33.4981912,52.5025486 34.8354797,50.9918213 34.9859638,49.1725083 C35.136448,47.3531953 34.0650334,45.6495772 32.3431694,44.9702953 L24.4847896,41.9009657 C26.6146033,36.3791238 24.5206538,30.1442581 19.4663757,26.9583244 L19.4663757,26.9583244 C17.4392327,25.6800408 15.0821181,25.0004199 12.6744087,25.0000068 Z M20.0537582,37.4568906 C20.0537582,41.4855691 16.7345917,44.7514583 12.6401923,44.7514583 C8.54579287,44.7514583 5.22662634,41.4855691 5.22662634,37.4568906 C5.22662634,33.4282122 8.54579287,30.162323 12.6401923,30.162323 C16.7345917,30.162323 20.0537582,33.4282122 20.0537582,37.4568906 Z" id="Shape"></path>
            </g>
        </g>
    </g>
</svg>